{"accessors" : [{"bufferView" : 0, "byteOffset" : 0, "componentType" : 5123, "count" : 61881, "type" : "SCALAR", "max" : [11708], "min" : [0]}, {"bufferView" : 1, "byteOffset" : 0, "componentType" : 5126, "count" : 11709, "type" : "VEC3", "max" : [365.4734802246094, 140.3563995361328, 12.55566692352295], "min" : [-36.429527282714844, 10.933656692504883, -363.8381652832031], "name" : "POSITION"}, {"bufferView" : 1, "byteOffset" : 12, "componentType" : 5126, "count" : 11709, "type" : "VEC2", "max" : [0.9948642253875732, 0.9999344944953918], "min" : [0.003893401939421892, 0.0002690553665161133], "name" : "TEXCOORD_0"}, {"bufferView" : 1, "byteOffset" : 20, "componentType" : 5126, "count" : 11709, "type" : "VEC3", "max" : [0.999977171421051, 1.0000038146972656, 0.9999660849571228], "min" : [-0.9999942779541016, -0.9996529221534729, -0.9999712705612183], "name" : "NORMAL"}], "asset" : {"generator" : "Aspose.3D 24.6.0", "version" : "2.0"}, "buffers" : [{"uri" : "buffer.bin", "byteLength" : 498460}], "bufferViews" : [{"buffer" : 0, "byteOffset" : 0, "byteLength" : 123764, "target" : 34963}, {"buffer" : 0, "byteOffset" : 123768, "byteLength" : 374688, "byteStride" : 32, "target" : 34962}], "meshes" : [{"primitives" : [{"attributes" : {"POSITION" : 1, "TEXCOORD_0" : 2, "NORMAL" : 3}, "indices" : 0, "mode" : 4}], "name" : ""}], "nodes" : [{"mesh" : 0, "name" : ""}], "scene" : 0, "scenes" : [{"nodes" : [0]}]}